<svg xmlns="http://www.w3.org/2000/svg" version="1.1" xmlns:xlink="http://www.w3.org/1999/xlink" xmlns:svgjs="http://svgjs.com/svgjs" width="1349" height="560" preserveAspectRatio="none" viewBox="0 0 1349 560"><g mask="url(&quot;#SvgjsMask1049&quot;)" fill="none"><rect width="1349" height="560" x="0" y="0" fill="rgba(19, 15, 64, 1)"></rect><path d="M1371.4833333333336 560L0 560 L0 450.3Q55 392.89, 112.41666666666667 447.89Q149.4 372.46, 224.83333333333334 409.45Q306.6 378.8, 337.25 460.56Q350.68 406.54, 404.7 419.97Q433.36 381.18, 472.15 409.84Q523.78 394.02, 539.6 445.65Q579.46 418.05, 607.0500000000001 457.91Q645.92 384.36, 719.4666666666667 423.23Q761.3 397.62, 786.9166666666667 439.45Q829.24 414.32, 854.3666666666668 456.65Q890.78 380.65, 966.7833333333334 417.06Q1030.5 368.36, 1079.2 432.07Q1147.33 387.79, 1191.6166666666668 455.92Q1206.17 403.03, 1259.0666666666668 417.58Q1326.75 372.85, 1371.4833333333336 440.53z" fill="#182f5d"></path><path d="M1416.4500000000003 560L0 560 L0 482.27Q59.52 429.37, 112.41666666666667 488.89Q129.63 438.65, 179.86666666666667 455.87Q218.71 427.26, 247.31666666666666 466.1Q314.88 421.25, 359.73333333333335 488.81Q387.75 449.38, 427.18333333333334 477.4Q455.69 438.46, 494.6333333333333 466.97Q544.31 404.23, 607.05 453.91Q661.75 441.16, 674.5 495.87Q720.61 429.57, 786.9166666666666 475.68Q831.76 408.11, 899.3333333333333 452.95Q954.23 440.4, 966.7833333333333 495.3Q1014.93 431.03, 1079.2 479.17Q1124.85 412.4, 1191.6166666666668 458.05Q1242.74 396.76, 1304.0333333333335 447.88Q1385.19 416.62, 1416.4500000000003 497.78z" fill="#25467d"></path><path d="M1371.4833333333333 560L0 560 L0 528.48Q47.66 463.73, 112.41666666666667 511.39Q137.91 469.43, 179.86666666666667 494.92Q233.88 481.49, 247.31666666666666 535.5Q273.12 493.85, 314.76666666666665 519.66Q360.3 452.78, 427.18333333333334 498.31Q455.83 459.51, 494.6333333333333 488.16Q568.12 449.23, 607.05 522.71Q670.15 473.4, 719.4666666666666 536.5Q737.52 487.11, 786.9166666666666 505.16Q851 456.83, 899.3333333333333 520.91Q940.02 449.18, 1011.7499999999999 489.86Q1054.18 464.84, 1079.1999999999998 507.27Q1149.78 465.44, 1191.6166666666666 536.02Q1205.03 481.98, 1259.0666666666666 495.4Q1309.96 433.87, 1371.4833333333333 484.76z" fill="#356cb1"></path><path d="M1349.0000000000002 560L0 560 L0 553.14Q54.55 495.28, 112.41666666666667 549.83Q153.27 523.24, 179.86666666666667 564.09Q218.49 490.3, 292.28333333333336 528.92Q356.59 480.81, 404.70000000000005 545.11Q470.7 498.7, 517.1166666666667 564.7Q556.32 491.49, 629.5333333333333 530.69Q674.76 508.47, 696.9833333333333 553.7Q741.19 530.46, 764.4333333333334 574.66Q794.97 492.78, 876.85 523.32Q922.69 501.71, 944.3000000000001 547.54Q988.78 524.56, 1011.7500000000001 569.04Q1051.47 496.35, 1124.1666666666667 536.07Q1185.53 485.02, 1236.5833333333335 546.39Q1306.02 503.41, 1349.0000000000002 572.84z" fill="rgba(55, 81, 133, 1)"></path></g><defs><mask id="SvgjsMask1049"><rect width="1349" height="560" fill="#ffffff"></rect></mask></defs></svg>