<svg xmlns="http://www.w3.org/2000/svg" version="1.1" xmlns:xlink="http://www.w3.org/1999/xlink" xmlns:svgjs="http://svgjs.com/svgjs" width="1349" height="155" preserveAspectRatio="none" viewBox="0 0 1349 155"><g mask="url(&quot;#SvgjsMask1034&quot;)" fill="none"><rect width="1349" height="155" x="0" y="0" fill="rgba(19, 15, 64, 1)"></rect><path d="M1371.4833333333336 155L0 155 L0 93.44Q48.46 29.48, 112.41666666666667 77.94Q171.22 24.32, 224.83333333333334 83.12Q287.13 33, 337.25 95.29Q381.97 27.6, 449.6666666666667 72.32Q489.23 44.44, 517.1166666666667 84Q558.15 57.58, 584.5666666666667 98.62Q628.02 29.66, 696.9833333333333 73.11Q738.2 46.87, 764.4333333333334 88.09Q790.65 46.86, 831.8833333333334 73.08Q901.11 29.89, 944.3000000000001 99.12Q992.8 35.2, 1056.7166666666667 83.7Q1107.52 22.09, 1169.1333333333334 72.89Q1215.71 52.02, 1236.5833333333335 98.6Q1263.42 57.99, 1304.0333333333335 84.82Q1331.82 45.15, 1371.4833333333336 72.94z" fill="#182f5d"></path><path d="M1416.4500000000005 155L0 155 L0 101.64Q55.35 44.58, 112.41666666666667 99.93Q153.58 73.64, 179.86666666666667 114.81Q229.59 52.12, 292.28333333333336 101.84Q354.31 51.45, 404.70000000000005 113.47Q436.88 78.2, 472.15000000000003 110.38Q519.73 45.55, 584.5666666666667 93.13Q632.42 73.53, 652.0166666666668 121.39Q680.09 82.01, 719.4666666666668 110.08Q746.03 69.19, 786.9166666666669 95.75Q822.6 63.98, 854.3666666666669 99.66Q897.81 75.65, 921.816666666667 119.1Q967.72 52.59, 1034.2333333333336 98.49Q1069.69 66.5, 1101.6833333333336 101.95Q1140.46 73.28, 1169.1333333333337 112.06Q1207.31 82.79, 1236.5833333333337 120.96Q1259.96 76.88, 1304.0333333333338 100.26Q1368.99 52.8, 1416.4500000000005 117.76z" fill="#25467d"></path><path d="M1349.0000000000002 155L0 155 L0 128.21Q57.97 73.76, 112.41666666666667 131.73Q139.12 90.98, 179.86666666666667 117.69Q242.27 67.67, 292.28333333333336 130.07Q331.18 101.52, 359.73333333333335 140.41Q402.36 70.62, 472.15000000000003 113.25Q513.11 86.76, 539.6 127.71Q580.35 101, 607.0500000000001 141.75Q650.93 73.22, 719.4666666666667 117.1Q782.11 67.32, 831.8833333333333 129.96Q893.6 79.26, 944.3 140.98Q986.67 70.94, 1056.7166666666667 113.31Q1096.35 85.5, 1124.1666666666667 125.13Q1187.8 76.34, 1236.5833333333335 139.97Q1280.09 71.06, 1349.0000000000002 114.57z" fill="#356cb1"></path><path d="M1393.966666666667 155L0 155 L0 143.13Q65.02 95.73, 112.41666666666667 160.75Q139.18 120.06, 179.86666666666667 146.82Q207.9 107.41, 247.31666666666666 135.44Q292.05 112.72, 314.76666666666665 157.45Q365.83 96.1, 427.18333333333334 147.16Q454.7 107.23, 494.6333333333333 134.74Q540.54 113.19, 562.0833333333334 159.1Q589.76 119.32, 629.5333333333334 147Q679.53 84.58, 741.95 134.57Q811.95 92.15, 854.3666666666667 162.15Q904.49 99.86, 966.7833333333333 149.98Q994.77 110.51, 1034.2333333333333 138.5Q1079.23 116.04, 1101.6833333333334 161.04Q1152.07 99.01, 1214.1000000000001 149.39Q1241.88 109.71, 1281.5500000000002 137.49Q1349.06 92.59, 1393.966666666667 160.1z" fill="rgba(55, 81, 133, 1)"></path></g><defs><mask id="SvgjsMask1034"><rect width="1349" height="155" fill="#ffffff"></rect></mask></defs></svg>