<svg xmlns="http://www.w3.org/2000/svg" version="1.1" xmlns:xlink="http://www.w3.org/1999/xlink" xmlns:svgjs="http://svgjs.com/svgjs" width="1349" height="155" preserveAspectRatio="none" viewBox="0 0 1349 155"><g mask="url(&quot;#SvgjsMask1051&quot;)" fill="none"><rect width="1349" height="155" x="0" y="0" fill="rgba(19, 15, 64, 1)"></rect><path d="M1393.9666666666672 155L0 155 L0 68.89Q29.89 31.33, 67.45 61.22Q91.11 17.43, 134.9 41.09Q184.5 23.24, 202.35000000000002 72.84Q226.75 29.79, 269.8 54.19Q320.15 -7.88, 382.2166666666667 42.47Q451.36 -0.81, 494.6333333333334 68.33Q544.65 5.93, 607.0500000000001 55.95Q657.93 -5.58, 719.4666666666667 45.3Q766.17 24.55, 786.9166666666667 71.25Q813.65 30.53, 854.3666666666668 57.26Q880.55 15.99, 921.8166666666668 42.17Q990.87 -1.19, 1034.2333333333336 67.86Q1050.08 16.26, 1101.6833333333336 32.11Q1143.68 6.66, 1169.1333333333337 48.66Q1237.27 4.38, 1281.5500000000004 72.52Q1319.49 -1.95, 1393.9666666666672 35.99z" fill="#182f5d"></path><path d="M1393.9666666666672 155L0 155 L0 81.39Q56.54 25.51, 112.41666666666667 82.05Q154.39 56.57, 179.86666666666667 98.55Q218.04 24.31, 292.28333333333336 62.48Q334.99 37.74, 359.73333333333335 80.44Q421.22 29.51, 472.15000000000003 90.99Q512.5 63.89, 539.6 104.24Q580.32 32.54, 652.0166666666667 73.26Q695.11 48.9, 719.4666666666667 91.99Q758.53 63.6, 786.9166666666667 102.67Q803.31 51.61, 854.3666666666668 68.01Q898.99 45.18, 921.8166666666668 89.81Q983.58 39.15, 1034.2333333333336 100.91Q1072.69 26.95, 1146.6500000000003 65.4Q1215.24 21.57, 1259.066666666667 90.16Q1298.99 62.63, 1326.516666666667 102.55Q1348.98 57.56, 1393.9666666666672 80.03z" fill="#25467d"></path><path d="M1371.4833333333336 155L0 155 L0 99.17Q56.34 43.09, 112.41666666666667 99.43Q158.09 77.65, 179.86666666666667 123.33Q211.29 87.3, 247.31666666666666 118.72Q291.91 50.9, 359.73333333333335 95.5Q412.63 80.94, 427.18333333333334 133.84Q450.92 90.13, 494.6333333333333 113.86Q542.96 49.77, 607.05 98.09Q654.83 78.42, 674.5 126.2Q722.42 61.7, 786.9166666666666 109.62Q835.62 45.91, 899.3333333333333 94.61Q953.03 80.85, 966.7833333333333 134.55Q994.87 95.19, 1034.2333333333333 123.28Q1057.99 79.59, 1101.6833333333334 103.35Q1151.71 85.93, 1169.1333333333334 135.96Q1194.95 94.33, 1236.5833333333335 120.15Q1257.64 73.76, 1304.0333333333335 94.81Q1356.66 79.99, 1371.4833333333336 132.62z" fill="#356cb1"></path><path d="M1438.9333333333336 155L0 155 L0 166.89Q50.19 104.66, 112.41666666666667 154.85Q157.42 87.44, 224.83333333333334 132.45Q275.57 115.74, 292.28333333333336 166.48Q339.56 101.34, 404.70000000000005 148.62Q432.27 108.73, 472.15000000000003 136.3Q541.23 92.97, 584.5666666666667 162.05Q635.29 100.35, 696.9833333333333 151.07Q720.39 107.03, 764.4333333333334 130.44Q831.22 84.81, 876.85 151.6Q939.13 101.47, 989.2666666666667 163.75Q1027.59 89.66, 1101.6833333333334 127.99Q1165.98 79.87, 1214.1000000000001 144.16Q1277.07 94.72, 1326.5166666666669 157.69Q1369.12 87.88, 1438.9333333333336 130.48z" fill="rgba(55, 81, 133, 1)"></path></g><defs><mask id="SvgjsMask1051"><rect width="1349" height="155" fill="#ffffff"></rect></mask></defs></svg>