<svg xmlns="http://www.w3.org/2000/svg" version="1.1" xmlns:xlink="http://www.w3.org/1999/xlink" xmlns:svgjs="http://svgjs.com/svgjs" width="1349" height="155" preserveAspectRatio="none" viewBox="0 0 1349 155"><g mask="url(&quot;#SvgjsMask1039&quot;)" fill="none"><rect width="1349" height="155" x="0" y="0" fill="rgba(19, 15, 64, 1)"></rect><path d="M 0,74 C 22.6,66.4 67.8,42.8 113,36 C 158.2,29.2 180.8,41 226,40 C 271.2,39 293.8,26.2 339,31 C 384.2,35.8 406.8,64.8 452,64 C 497.2,63.2 519.8,30 565,27 C 610.2,24 632.8,48.6 678,49 C 723.2,49.4 745.8,24.4 791,29 C 836.2,33.6 858.8,72.6 904,72 C 949.2,71.4 971.8,30.2 1017,26 C 1062.2,21.8 1084.8,52.2 1130,51 C 1175.2,49.8 1199.2,16.8 1243,20 C 1286.8,23.2 1327.8,57.6 1349,67L1349 155L0 155z" fill="#184a7e"></path><path d="M 0,115 C 19.4,122 58.2,153 97,150 C 135.8,147 155.2,105.6 194,100 C 232.8,94.4 252.2,125.4 291,122 C 329.8,118.6 349.2,78.2 388,83 C 426.8,87.8 446.2,141.4 485,146 C 523.8,150.6 543.2,111.8 582,106 C 620.8,100.2 640.2,116.6 679,117 C 717.8,117.4 737.2,102.2 776,108 C 814.8,113.8 834.2,147.8 873,146 C 911.8,144.2 931.2,103.2 970,99 C 1008.8,94.8 1028.2,124 1067,125 C 1105.8,126 1125.2,98.6 1164,104 C 1202.8,109.4 1224,152.4 1261,152 C 1298,151.6 1331.4,112 1349,102L1349 155L0 155z" fill="#2264ab"></path></g><defs><mask id="SvgjsMask1039"><rect width="1349" height="155" fill="#ffffff"></rect></mask></defs></svg>